<mxfile host="65bd71144e">
    <diagram id="P19fTHY-L78ZA4xSGWQA" name="Page-1">
        <mxGraphModel dx="1523" dy="861" grid="1" gridSize="10" guides="1" tooltips="1" connect="1" arrows="1" fold="1" page="1" pageScale="1" pageWidth="2339" pageHeight="3300" background="#ffffff" math="0" shadow="0">
            <root>
                <mxCell id="0"/>
                <mxCell id="1" parent="0"/>
                <mxCell id="19" value="Azure (172.16.0.0/16)" style="rounded=0;whiteSpace=wrap;html=1;dashed=1;verticalAlign=top;align=left;spacingLeft=0;fontSize=18;" vertex="1" parent="1">
                    <mxGeometry x="620" y="160" width="860" height="380" as="geometry"/>
                </mxCell>
                <mxCell id="14" value="Spoke Virtual Network" style="rounded=0;whiteSpace=wrap;html=1;dashed=1;verticalAlign=top;align=left;spacingLeft=0;fillColor=#dae8fc;strokeColor=#6c8ebf;fontSize=18;" vertex="1" parent="1">
                    <mxGeometry x="1100" y="230" width="320" height="240" as="geometry"/>
                </mxCell>
                <mxCell id="21" style="edgeStyle=none;html=1;entryX=0;entryY=0.5;entryDx=0;entryDy=0;fontSize=18;strokeColor=none;" edge="1" parent="1" source="10" target="14">
                    <mxGeometry relative="1" as="geometry"/>
                </mxCell>
                <mxCell id="22" value="Peering" style="edgeStyle=none;html=1;fontSize=18;endArrow=classic;endFill=1;dashed=1;startArrow=classic;startFill=1;" edge="1" parent="1" source="10">
                    <mxGeometry x="-0.0059" relative="1" as="geometry">
                        <mxPoint x="1100" y="350" as="targetPoint"/>
                        <mxPoint as="offset"/>
                    </mxGeometry>
                </mxCell>
                <mxCell id="10" value="Hub Virtual Network" style="rounded=0;whiteSpace=wrap;html=1;dashed=1;verticalAlign=top;align=left;spacingLeft=0;fillColor=#dae8fc;strokeColor=#6c8ebf;fontSize=18;" vertex="1" parent="1">
                    <mxGeometry x="650" y="230" width="320" height="240" as="geometry"/>
                </mxCell>
                <mxCell id="12" value="Gateway Subnet" style="rounded=0;whiteSpace=wrap;html=1;dashed=1;verticalAlign=top;align=left;spacingLeft=0;fillColor=#f5f5f5;strokeColor=#666666;fontColor=#333333;" vertex="1" parent="1">
                    <mxGeometry x="675" y="300" width="205" height="140" as="geometry"/>
                </mxCell>
                <mxCell id="6" value="Azure Virtual &lt;br&gt;Network Gateway" style="aspect=fixed;html=1;points=[];align=center;image;fontSize=12;image=img/lib/mscae/VPN_Gateway.svg;labelBackgroundColor=none;" vertex="1" parent="1">
                    <mxGeometry x="710" y="330" width="45" height="50" as="geometry"/>
                </mxCell>
                <mxCell id="11" value="" style="aspect=fixed;html=1;points=[];align=center;image;fontSize=12;image=img/lib/azure2/networking/Virtual_Networks.svg;" vertex="1" parent="1">
                    <mxGeometry x="898.82" y="240" width="50.25" height="30" as="geometry"/>
                </mxCell>
                <mxCell id="13" value="Network &lt;br&gt;Security&lt;br&gt;Group" style="aspect=fixed;html=1;points=[];align=center;image;fontSize=12;image=img/lib/azure2/networking/Network_Security_Groups.svg;rounded=0;dashed=1;labelBackgroundColor=none;" vertex="1" parent="1">
                    <mxGeometry x="907.47" y="300" width="32.94" height="40" as="geometry"/>
                </mxCell>
                <mxCell id="16" value="Default Subnet" style="rounded=0;whiteSpace=wrap;html=1;dashed=1;verticalAlign=top;align=left;spacingLeft=0;fillColor=#f5f5f5;strokeColor=#666666;fontColor=#333333;" vertex="1" parent="1">
                    <mxGeometry x="1120" y="300" width="205" height="140" as="geometry"/>
                </mxCell>
                <mxCell id="15" value="" style="aspect=fixed;html=1;points=[];align=center;image;fontSize=12;image=img/lib/azure2/networking/Virtual_Networks.svg;" vertex="1" parent="1">
                    <mxGeometry x="1348.8200000000002" y="240" width="50.25" height="30" as="geometry"/>
                </mxCell>
                <mxCell id="3" value="Sensor Server" style="aspect=fixed;html=1;points=[];align=center;image;fontSize=12;image=img/lib/mscae/Virtual_Machine.svg;labelBackgroundColor=none;" vertex="1" parent="1">
                    <mxGeometry x="1150" y="334" width="50" height="46" as="geometry"/>
                </mxCell>
                <mxCell id="17" value="On-Premises (192.168.0.0/16)" style="rounded=0;whiteSpace=wrap;html=1;dashed=1;verticalAlign=top;align=left;spacingLeft=0;fontSize=18;" vertex="1" parent="1">
                    <mxGeometry x="140" y="160" width="370" height="380" as="geometry"/>
                </mxCell>
                <mxCell id="4" value="Sensor" style="outlineConnect=0;dashed=0;verticalLabelPosition=bottom;verticalAlign=top;align=center;html=1;shape=mxgraph.aws3.alexa_enabled_device;fillColor=#5294CF;gradientColor=none;" vertex="1" parent="1">
                    <mxGeometry x="220" y="331.38" width="50" height="51.25" as="geometry"/>
                </mxCell>
                <mxCell id="23" value="S2S VPN" style="edgeStyle=none;html=1;fontSize=18;endArrow=classic;endFill=1;startArrow=classic;exitX=1;exitY=0.5;exitDx=0;exitDy=0;dashed=1;startFill=1;" edge="1" parent="1" source="9" target="6">
                    <mxGeometry relative="1" as="geometry">
                        <mxPoint x="589.1500000000001" y="354.79999999999995" as="sourcePoint"/>
                    </mxGeometry>
                </mxCell>
                <mxCell id="9" value="Firewall" style="aspect=fixed;perimeter=ellipsePerimeter;html=1;align=center;shadow=0;dashed=0;spacingTop=3;image;image=img/lib/active_directory/firewall.svg;" vertex="1" parent="1">
                    <mxGeometry x="390" y="326" width="35.38" height="58" as="geometry"/>
                </mxCell>
            </root>
        </mxGraphModel>
    </diagram>
</mxfile>